<svg width="256" height="256" viewBox="0 0 256 256" fill="none" xmlns="http://www.w3.org/2000/svg">
  <defs>
    <linearGradient id="grad1" x1="0%" y1="0%" x2="100%" y2="100%">
      <stop offset="0%" style="stop-color:#58a6ff;stop-opacity:1" />
      <stop offset="100%" style="stop-color:#bc8cff;stop-opacity:1" />
    </linearGradient>
    <filter id="glow" x="-20%" y="-20%" width="140%" height="140%">
      <feGaussianBlur stdDeviation="5" result="blur" />
      <feComposite in="SourceGraphic" in2="blur" operator="over" />
    </filter>
  </defs>
  <!-- Main Hexagon -->
  <path d="M128 20L221.53 74v108L128 236L34.4699 182V74L128 20Z" stroke="url(#grad1)" stroke-width="8" stroke-linejoin="round" filter="url(#glow)" />
  <!-- Swarm Nodes -->
  <circle cx="128" cy="128" r="6" fill="#58a6ff" />
  <circle cx="108" cy="108" r="4" fill="#58a6ff" opacity="0.6" />
  <circle cx="148" cy="148" r="4" fill="#58a6ff" opacity="0.6" />
  <circle cx="148" cy="108" r="3" fill="#bc8cff" opacity="0.4" />
  <circle cx="108" cy="148" r="3" fill="#bc8cff" opacity="0.4" />
  <path d="M128 80L135 95H121L128 80Z" fill="#58a6ff" opacity="0.8" />
  <path d="M128 176L135 161H121L128 176Z" fill="#bc8cff" opacity="0.8" />
  <path d="M80 128L95 135V121L80 128Z" fill="#58a6ff" opacity="0.8" />
  <path d="M176 128L161 135V121L176 128Z" fill="#bc8cff" opacity="0.8" />
</svg>
